<svg width="64" height="64" viewBox="0 0 64 64" fill="none" xmlns="http://www.w3.org/2000/svg">
    <g clip-path="url(#clip0_88_3254)">
        <path d="M32.2761 45.3581L32.2782 45.3573C27.7873 40.6601 31.1741 32.9053 37.587 32.8869C41.6704 32.8753 44.9842 36.1819 44.9842 40.2626C44.9842 34.1342 52.0379 30.698 56.863 34.4357L58.3516 32.8886L58.3473 32.8869C61.175 29.9293 62.8314 25.8424 62.5596 21.3684C62.0738 13.3759 55.3455 7.04983 47.3382 7.02692C38.8705 7.0027 31.9984 13.8598 31.9984 22.3219C31.9984 13.8598 25.1263 7.0027 16.6586 7.02692C8.65125 7.04983 1.92297 13.3759 1.43722 21.3684C1.16534 25.8426 2.82178 29.9293 5.64949 32.8869L5.64536 32.8886L26.6077 54.6775C29.5505 57.7365 34.4463 57.7365 37.3892 54.6775L39.3155 52.6752L32.2761 45.3581Z" fill="#F64555"/>
        <path d="M52.3817 32.8865C48.2983 32.8749 44.9845 36.1816 44.9845 40.2622C44.9845 36.1816 41.6706 32.8749 37.5872 32.8865C31.1655 32.9049 27.7931 40.6657 32.2784 45.3569L32.2763 45.3577L42.3849 55.8649C43.804 57.3399 46.1649 57.3399 47.584 55.8649L57.6926 45.3577L57.6905 45.3569C62.1814 40.6597 58.7946 32.9049 52.3817 32.8865Z" fill="#FF6360"/>
        <path d="M16.6757 11.2512C16.6744 11.2512 16.6729 11.2512 16.6716 11.2512C10.8994 11.2679 6.00609 15.8443 5.65498 21.6245C5.60785 22.4009 6.19893 23.0684 6.97532 23.1156C7.77106 23.1608 8.42016 22.5558 8.46635 21.7954C8.72677 17.5099 12.3829 14.0797 16.6796 14.0677C17.4574 14.0654 18.086 13.4332 18.0839 12.6555C18.0817 11.8791 17.4515 11.2512 16.6757 11.2512Z" fill="#252C2E"/>
        <path d="M58.874 34.3769C62.4407 30.6691 64.2789 26.4394 63.9655 21.2829C63.4332 12.5243 56.1315 5.64357 47.3427 5.61841C47.326 5.61841 47.3102 5.61841 47.2935 5.61841C40.3073 5.61841 34.5212 9.86278 31.9988 15.5862C29.4664 9.8395 23.6683 5.61841 16.704 5.61841C16.6877 5.61841 16.6713 5.61841 16.6548 5.61841C7.86602 5.64338 0.564307 12.5241 0.0320002 21.2827C-0.257154 26.041 1.42426 30.5185 4.63087 33.8647L25.5932 55.6536C27.2846 57.4114 29.5595 58.3797 31.999 58.3797C36.1594 58.3797 38.2689 55.7942 39.3157 54.7061L41.3702 56.8415C43.3464 58.8955 46.6242 58.894 48.5989 56.8415C48.6439 56.7946 58.7245 46.3189 58.7664 46.2692C61.9634 42.8628 61.8825 37.6984 58.874 34.3769ZM31.999 55.5631C30.3326 55.5631 28.7784 54.9018 27.623 53.7006C-0.37845 24.5954 10.2322 35.627 6.66791 31.9134C3.96356 29.085 2.60529 25.3701 2.84337 21.4536C3.28574 14.174 9.3561 8.4555 16.6631 8.43466C16.677 8.43466 16.6901 8.43466 16.704 8.43466C24.379 8.43466 30.5907 14.6457 30.5907 22.3216C30.5907 23.0995 31.2212 23.7298 31.999 23.7298C32.7769 23.7298 33.4072 23.0995 33.4072 22.3216C33.4072 14.646 39.6182 8.43466 47.2939 8.43466C47.3074 8.43466 47.3213 8.43466 47.3348 8.43466C54.6418 8.4555 60.712 14.174 61.1545 21.4536C61.3926 25.3701 60.0343 29.0848 57.3302 31.9134C57.3302 31.9134 57.3533 31.8952 56.6653 32.6104C52.6444 30.3407 47.5357 31.5659 44.985 35.4862C43.4061 33.0595 40.6969 31.4782 37.6091 31.4782C37.6007 31.4782 37.592 31.4782 37.5836 31.4782C29.976 31.5002 25.929 40.6496 31.2028 46.2688C31.2218 46.291 31.2415 46.3128 31.2618 46.3342L37.362 52.6747C36.3068 53.7714 34.914 55.5631 31.999 55.5631ZM56.6244 44.4374L46.5695 54.8886C45.7024 55.7895 44.266 55.7886 43.3997 54.8886C41.6154 53.0339 39.921 51.2727 33.345 44.4376C33.3293 44.4194 33.3129 44.4015 33.2962 44.3841C29.6805 40.602 32.3672 34.3102 37.5913 34.295C37.5971 34.295 37.6027 34.295 37.6085 34.295C40.9075 34.295 43.5764 36.9644 43.5764 40.2625C43.5764 41.0404 44.2067 41.6707 44.9846 41.6707C45.7625 41.6707 46.3928 41.0404 46.3928 40.2625C46.3928 36.9999 49.0193 34.295 52.3776 34.295C57.2232 34.3089 60.4589 40.0231 56.6244 44.4374Z" fill="#252C2E"/>
    </g>
    <defs>
        <clipPath id="clip0_88_3254">
            <rect width="64" height="64" fill="white"/>
        </clipPath>
    </defs>
</svg>
