<svg width="64" height="64" viewBox="0 0 64 64" fill="none" xmlns="http://www.w3.org/2000/svg">
	<path d="M54.6274 9.37241C48.5833 3.3284 40.5474 0 32 0C23.4526 0 15.4166 3.3284 9.37256 9.37241C3.32856 15.4164 0 23.4524 0 31.9998C0 40.5472 3.32856 48.5837 9.37256 54.6276C15.4166 60.6716 23.4524 64 32 64C40.5476 64 48.5834 60.6716 54.6274 54.6276C60.6714 48.5837 64 40.5477 64 31.9998C64 23.4526 60.6714 15.4164 54.6274 9.37241ZM14.3002 20.9291C14.3002 19.6385 15.3466 18.592 16.6373 18.592C17.9281 18.592 18.9745 19.6385 18.9745 20.9291C18.9745 22.6472 20.3724 24.0453 22.0907 24.0453C23.8089 24.0453 25.2069 22.6472 25.2069 20.9291C25.2069 19.6385 26.2533 18.592 27.544 18.592C28.8347 18.592 29.8811 19.6385 29.8811 20.9291C29.8811 25.2248 26.3863 28.7196 22.0907 28.7196C17.795 28.7196 14.3002 25.2249 14.3002 20.9291ZM46.5059 36.6637C43.8027 41.7005 38.585 45.0187 32.8887 45.3228C32.6002 45.3382 32.3116 45.3456 32.0243 45.3456C26.5912 45.3456 21.4155 42.62 18.3578 38.0937C18.046 37.632 17.7556 37.1509 17.4938 36.6637C16.8834 35.5264 17.3104 34.1095 18.4478 33.499C19.5848 32.8886 21.0019 33.3155 21.6125 34.4531C21.7996 34.8018 22.0079 35.1463 22.2315 35.4774C24.537 38.8902 28.5275 40.8744 32.6394 40.6548C36.716 40.4371 40.4511 38.0607 42.3872 34.4528C42.9977 33.3153 44.4143 32.8883 45.5518 33.4984C46.6891 34.1094 47.1163 35.5263 46.5059 36.6637ZM41.9093 28.7196C37.6138 28.7196 34.119 25.2248 34.119 20.9291C34.119 19.6385 35.1653 18.592 36.4562 18.592C37.7467 18.592 38.7933 19.6385 38.7933 20.9291C38.7933 22.6472 40.1912 24.0453 41.9093 24.0453C43.6276 24.0453 45.0255 22.6472 45.0255 20.9291C45.0255 19.6385 46.0721 18.592 47.3627 18.592C48.6534 18.592 49.6998 19.6385 49.6998 20.9291C49.6998 25.2249 46.205 28.7196 41.9093 28.7196Z" fill="#FF6360"/>
</svg>
